<svg width="32" height="32" viewBox="0 0 32 32" fill="none" xmlns="http://www.w3.org/2000/svg">
<path d="M26.6667 18.6666C28.1394 18.6666 29.3333 17.4727 29.3333 16C29.3333 14.5272 28.1394 13.3333 26.6667 13.3333C25.1939 13.3333 24 14.5272 24 16C24 17.4727 25.1939 18.6666 26.6667 18.6666Z" fill="black"/>
<path d="M5.33329 18.6666C6.80605 18.6666 7.99996 17.4727 7.99996 16C7.99996 14.5272 6.80605 13.3333 5.33329 13.3333C3.86053 13.3333 2.66663 14.5272 2.66663 16C2.66663 17.4727 3.86053 18.6666 5.33329 18.6666Z" fill="black"/>
<path d="M15.9999 29.3333C17.4727 29.3333 18.6666 28.1394 18.6666 26.6667C18.6666 25.1939 17.4727 24 15.9999 24C14.5272 24 13.3333 25.1939 13.3333 26.6667C13.3333 28.1394 14.5272 29.3333 15.9999 29.3333Z" fill="black"/>
<path d="M10.52 19.5333L6.59996 23.44C6.07996 23.96 6.07996 24.8 6.59996 25.32C7.11996 25.84 7.95996 25.84 8.47996 25.32L12.4 21.4133C12.92 20.9067 12.92 20.0533 12.4 19.5333C11.88 19.0133 11.04 19.0133 10.52 19.5333Z" fill="black"/>
<path d="M8.54661 6.58666C8.02661 6.06666 7.18661 6.06666 6.66661 6.58666C6.14661 7.10666 6.14661 7.94666 6.66661 8.46666L10.5733 12.3867C11.0933 12.9067 11.9333 12.9067 12.4666 12.3867C12.9733 11.8667 12.9733 11.0267 12.4533 10.5067L8.54661 6.58666Z" fill="black"/>
<path d="M21.4933 19.5333C20.9733 19.0133 20.1333 19.0133 19.6 19.5333C19.08 20.0533 19.08 20.8933 19.6 21.4133L23.52 25.3333C24.04 25.8533 24.88 25.8533 25.4 25.3333C25.92 24.8133 25.92 23.9733 25.4 23.4533L21.4933 19.5333Z" fill="black"/>
<path d="M21.4133 12.44L25.4 8.46665C25.92 7.93332 25.92 7.09332 25.4 6.57332C24.88 6.05332 24.04 6.05332 23.52 6.57332L19.5333 10.5467C19.0133 11.0667 19.0133 11.9067 19.5333 12.44C20.0533 12.96 20.8933 12.96 21.4133 12.44Z" fill="black"/>
<path d="M15.9999 7.99999C17.4727 7.99999 18.6666 6.80608 18.6666 5.33332C18.6666 3.86056 17.4727 2.66666 15.9999 2.66666C14.5272 2.66666 13.3333 3.86056 13.3333 5.33332C13.3333 6.80608 14.5272 7.99999 15.9999 7.99999Z" fill="black"/>
</svg>
