<svg width="48" height="48" viewBox="0 0 48 48" fill="none" xmlns="http://www.w3.org/2000/svg">
<path fill-rule="evenodd" clip-rule="evenodd" d="M24 43.2C29.0922 43.2 33.9758 41.1772 37.5765 37.5765C41.1772 33.9758 43.2 29.0922 43.2 24C43.2 18.9078 41.1772 14.0243 37.5765 10.4236C33.9758 6.82285 29.0922 4.8 24 4.8C18.9079 4.8 14.0243 6.82285 10.4236 10.4236C6.8229 14.0243 4.80005 18.9078 4.80005 24C4.80005 29.0922 6.8229 33.9758 10.4236 37.5765C14.0243 41.1772 18.9079 43.2 24 43.2ZM32.8968 20.8968C33.334 20.4442 33.5759 19.8379 33.5705 19.2086C33.565 18.5794 33.3126 17.9774 32.8676 17.5324C32.4226 17.0875 31.8207 16.8351 31.1914 16.8296C30.5621 16.8241 29.9559 17.066 29.5032 17.5032L21.6 25.4064L18.4968 22.3032C18.0442 21.866 17.438 21.6241 16.8087 21.6296C16.1794 21.6351 15.5775 21.8875 15.1325 22.3324C14.6875 22.7774 14.4351 23.3794 14.4296 24.0086C14.4242 24.6379 14.6661 25.2442 15.1032 25.6968L19.9032 30.4968C20.3533 30.9467 20.9637 31.1995 21.6 31.1995C22.2364 31.1995 22.8468 30.9467 23.2968 30.4968L32.8968 20.8968Z" fill="#249F5D"/>
</svg>
